<svg width="64" height="64" viewBox="0 0 64 64" fill="none" stroke="#222222" stroke-width="1.2" stroke-linecap="round" stroke-linejoin="round" xmlns="http://www.w3.org/2000/svg">
  <!-- Central Dome -->
  <path d="M 24 24 C 24 14, 40 14, 40 24" />
  <path d="M 32 14 L 32 10" />
  <circle cx="32" cy="8" r="2" />
  
  <!-- Main Building Block -->
  <rect x="22" y="24" width="20" height="24" />
  
  <!-- Pillars for the Main Building -->
  <line x1="26" y1="24" x2="26" y2="48" />
  <line x1="32" y1="24" x2="32" y2="48" />
  <line x1="38" y1="24" x2="38" y2="48" />
  
  <!-- Side Wings -->
  <rect x="10" y="32" width="12" height="16" />
  <rect x="42" y="32" width="12" height="16" />
  
  <!-- Mini Domes for Side Wings -->
  <path d="M 12 32 C 12 28, 20 28, 20 32" />
  <path d="M 44 32 C 44 28, 52 28, 52 32" />
  
  <!-- Window/Arch detailing on side wings -->
  <path d="M 14 42 A 2 2 0 0 1 18 42" />
  <line x1="14" y1="42" x2="14" y2="48" />
  <line x1="18" y1="42" x2="18" y2="48" />

  <path d="M 46 42 A 2 2 0 0 1 50 42" />
  <line x1="46" y1="42" x2="46" y2="48" />
  <line x1="50" y1="42" x2="50" y2="48" />
  
  <!-- Step Base -->
  <line x1="6" y1="48" x2="58" y2="48" />
  <line x1="4" y1="52" x2="60" y2="52" />
  <line x1="2" y1="54" x2="62" y2="54" />
</svg>
